<svg width="740" height="220" viewBox="0 0 740 220" fill="none" xmlns="http://www.w3.org/2000/svg" role="img" aria-labelledby="title desc">
  <title id="title">Crochet Canvas logo</title>
  <desc id="desc">A yarn ball and crochet hook icon beside the words Crochet Canvas.</desc>
  <defs>
    <linearGradient id="bg" x1="36" y1="26" x2="188" y2="184" gradientUnits="userSpaceOnUse">
      <stop stop-color="#D88952"/>
      <stop offset="0.55" stop-color="#C8663C"/>
      <stop offset="1" stop-color="#9B4B2A"/>
    </linearGradient>
    <linearGradient id="hook" x1="54" y1="42" x2="201" y2="178" gradientUnits="userSpaceOnUse">
      <stop stop-color="#E4B271"/>
      <stop offset="1" stop-color="#B67931"/>
    </linearGradient>
  </defs>

  <rect x="22" y="22" width="180" height="180" rx="42" fill="#FFF9F1" stroke="#D8C4AB" stroke-width="2"/>
  <circle cx="112" cy="112" r="58" fill="url(#bg)"/>
  <path d="M66 114C81 101 94 101 112 114C130 127 143 127 158 114" stroke="#FFE6D0" stroke-width="8" stroke-linecap="round"/>
  <path d="M66 94C83 81 96 82 112 94C128 106 141 107 158 94" stroke="#F9D5B8" stroke-width="8" stroke-linecap="round"/>
  <path d="M66 134C81 122 94 122 112 134C130 146 143 146 158 134" stroke="#FFDCC0" stroke-width="8" stroke-linecap="round"/>
  <path d="M145 56L169 80L126 123L106 103L145 56Z" fill="url(#hook)"/>
  <path d="M171 77C180 71 190 77 190 86V93C190 102 179 108 171 103" stroke="#B67931" stroke-width="6" stroke-linecap="round" stroke-linejoin="round"/>

  <text x="236" y="92" fill="#4A3526" font-family="Fraunces, Georgia, serif" font-size="64" font-weight="600" letter-spacing="0.5">Crochet</text>
  <text x="236" y="156" fill="#2E5E8A" font-family="Fraunces, Georgia, serif" font-size="64" font-weight="600" letter-spacing="0.5">Canvas</text>
  <rect x="238" y="169" width="190" height="8" rx="4" fill="#D89E58"/>
</svg>
