<svg xmlns="http://www.w3.org/2000/svg" viewBox="0 0 1200 900" role="img" aria-labelledby="title desc">
  <title id="title">Granny Square Textile</title>
  <desc id="desc">A patchwork of crocheted granny-square inspired blocks in warm colors.</desc>
  <rect width="1200" height="900" fill="#f8efe4" />

  <g>
    <rect x="80" y="70" width="320" height="320" rx="36" fill="#d5646a" />
    <rect x="130" y="120" width="220" height="220" rx="28" fill="#f1b55e" />
    <rect x="180" y="170" width="120" height="120" rx="20" fill="#fff1d7" />

    <rect x="440" y="70" width="320" height="320" rx="36" fill="#5eaeb7" />
    <rect x="490" y="120" width="220" height="220" rx="28" fill="#8ad0d8" />
    <rect x="540" y="170" width="120" height="120" rx="20" fill="#f7f3e8" />

    <rect x="800" y="70" width="320" height="320" rx="36" fill="#7d89d8" />
    <rect x="850" y="120" width="220" height="220" rx="28" fill="#b4b9ef" />
    <rect x="900" y="170" width="120" height="120" rx="20" fill="#f4f0ff" />

    <rect x="80" y="430" width="320" height="320" rx="36" fill="#df8b64" />
    <rect x="130" y="480" width="220" height="220" rx="28" fill="#f0bf7b" />
    <rect x="180" y="530" width="120" height="120" rx="20" fill="#fff6e2" />

    <rect x="440" y="430" width="320" height="320" rx="36" fill="#75ba8a" />
    <rect x="490" y="480" width="220" height="220" rx="28" fill="#9dd3aa" />
    <rect x="540" y="530" width="120" height="120" rx="20" fill="#eef9f1" />

    <rect x="800" y="430" width="320" height="320" rx="36" fill="#d16f9a" />
    <rect x="850" y="480" width="220" height="220" rx="28" fill="#e79fbe" />
    <rect x="900" y="530" width="120" height="120" rx="20" fill="#fff0f7" />
  </g>

  <g fill="none" stroke="rgba(255,255,255,0.35)" stroke-width="6" stroke-linecap="round">
    <path d="M80 230 Q240 170 400 230" />
    <path d="M440 230 Q600 170 760 230" />
    <path d="M800 230 Q960 170 1120 230" />
    <path d="M80 590 Q240 530 400 590" />
    <path d="M440 590 Q600 530 760 590" />
    <path d="M800 590 Q960 530 1120 590" />
  </g>
</svg>
