<svg xmlns="http://www.w3.org/2000/svg" viewBox="0 0 1200 900" role="img" aria-labelledby="title desc">
  <title id="title">Yarn Wall</title>
  <desc id="desc">Rows of colorful yarn skeins arranged in a studio shelf.</desc>
  <defs>
    <linearGradient id="bg" x1="0" x2="0" y1="0" y2="1">
      <stop offset="0" stop-color="#fff4e5" />
      <stop offset="1" stop-color="#ffe6c7" />
    </linearGradient>
  </defs>
  <rect width="1200" height="900" fill="url(#bg)" />
  <rect x="80" y="130" width="1040" height="38" rx="10" fill="#c58552" />
  <rect x="80" y="420" width="1040" height="38" rx="10" fill="#c58552" />
  <rect x="80" y="710" width="1040" height="38" rx="10" fill="#c58552" />

  <g transform="translate(130 165)">
    <ellipse cx="0" cy="0" rx="62" ry="84" fill="#ef8069" />
    <ellipse cx="140" cy="0" rx="62" ry="84" fill="#f4b544" />
    <ellipse cx="280" cy="0" rx="62" ry="84" fill="#72c7c4" />
    <ellipse cx="420" cy="0" rx="62" ry="84" fill="#d6689f" />
    <ellipse cx="560" cy="0" rx="62" ry="84" fill="#87be6c" />
    <ellipse cx="700" cy="0" rx="62" ry="84" fill="#7f8dd7" />
    <ellipse cx="840" cy="0" rx="62" ry="84" fill="#f09f58" />
  </g>

  <g transform="translate(130 455)">
    <ellipse cx="0" cy="0" rx="62" ry="84" fill="#65b8ab" />
    <ellipse cx="140" cy="0" rx="62" ry="84" fill="#cd79bc" />
    <ellipse cx="280" cy="0" rx="62" ry="84" fill="#f17c7f" />
    <ellipse cx="420" cy="0" rx="62" ry="84" fill="#f0bf57" />
    <ellipse cx="560" cy="0" rx="62" ry="84" fill="#a36fd4" />
    <ellipse cx="700" cy="0" rx="62" ry="84" fill="#6ea4d7" />
    <ellipse cx="840" cy="0" rx="62" ry="84" fill="#97c76d" />
  </g>

  <g transform="translate(130 745)">
    <ellipse cx="0" cy="0" rx="62" ry="84" fill="#f39f64" />
    <ellipse cx="140" cy="0" rx="62" ry="84" fill="#76c9d8" />
    <ellipse cx="280" cy="0" rx="62" ry="84" fill="#df6788" />
    <ellipse cx="420" cy="0" rx="62" ry="84" fill="#f0cc74" />
    <ellipse cx="560" cy="0" rx="62" ry="84" fill="#7dc4a1" />
    <ellipse cx="700" cy="0" rx="62" ry="84" fill="#b183db" />
    <ellipse cx="840" cy="0" rx="62" ry="84" fill="#ed856d" />
  </g>

  <g fill="none" stroke="rgba(255,255,255,0.45)" stroke-width="5">
    <path d="M110 125 Q 160 100 220 125" />
    <path d="M250 125 Q 300 100 360 125" />
    <path d="M390 125 Q 440 100 500 125" />
    <path d="M530 125 Q 580 100 640 125" />
  </g>
</svg>
